<svg xmlns="http://www.w3.org/2000/svg" version="1.1" xlink="http://www.w3.org/1999/xlink" xmlns:svgjs="http://svgjs.com/svgjs" width="147" height="147"><defs id="SvgjsDefs25819"/><g id="SvgjsG25820" transform="scale(0.515970515970516)" opacity="1"><g id="SvgjsG25821" class="Xvgeq7jpt" transform="translate(0, 0) scale(2.8489999999999998)" light-content="false" fill="#000000"><path d="M0 0h100v100H0z"/></g><g id="SvgjsG25822" class="text" transform="translate(142.35070736995561, 239.35620930044723) scale(1)" light-content="true" fill="#fcbd1b"><path d="M-69.89 -43.14L-81.07 -21.09L-74.3 -17.65C-69.85 -15.4 -66.52 -16.45 -64.31 -20.8C-63.52 -22.36 -63.23 -23.77 -63.44 -25.02C-63.65 -26.26 -64.35 -27.29 -65.54 -28.1C-64.41 -27.77 -63.37 -27.83 -62.44 -28.27C-61.51 -28.71 -60.71 -29.59 -60.05 -30.89C-59.27 -32.44 -58.97 -33.79 -59.15 -34.96C-59.34 -36.12 -59.86 -37.11 -60.71 -37.92C-61.57 -38.73 -62.71 -39.5 -64.15 -40.23ZM-68.54 -31.36L-69.49 -31.85L-66.68 -37.4L-65.83 -36.97C-64.93 -36.51 -64.35 -35.94 -64.1 -35.26C-63.86 -34.57 -63.95 -33.8 -64.39 -32.92C-64.9 -31.93 -65.46 -31.29 -66.07 -31C-66.68 -30.72 -67.51 -30.84 -68.54 -31.36ZM-73.44 -21.5L-74.48 -22.02L-71.12 -28.64L-70.11 -28.12C-69.06 -27.59 -68.45 -26.96 -68.28 -26.24C-68.11 -25.51 -68.35 -24.52 -68.98 -23.27C-69.54 -22.16 -70.17 -21.46 -70.86 -21.16C-71.55 -20.86 -72.41 -20.97 -73.44 -21.5Z M-50.78 -34.2L-59.32 -11L-54.68 -9.29L-46.14 -32.5Z M-44.38 -6.35C-43.88 -5.79 -43.21 -5.41 -42.38 -5.2C-41.53 -4.99 -40.77 -5.07 -40.09 -5.44C-39.4 -5.82 -38.85 -6.37 -38.41 -7.1C-38.41 -6.78 -38.48 -5.94 -38.64 -4.57L-34.31 -3.49C-34.23 -4.64 -33.98 -6.09 -33.54 -7.82L-31.53 -15.82C-31.14 -17.37 -31.27 -18.73 -31.92 -19.9C-32.57 -21.06 -33.74 -21.85 -35.41 -22.27C-37.41 -22.77 -39.03 -22.66 -40.28 -21.94C-41.53 -21.21 -42.46 -19.83 -43.05 -17.8L-38.6 -16.49L-38.17 -17.71C-38.04 -18.14 -37.86 -18.45 -37.65 -18.65C-37.43 -18.84 -37.13 -18.89 -36.76 -18.8C-36.38 -18.71 -36.15 -18.51 -36.07 -18.22C-35.99 -17.92 -36.01 -17.53 -36.13 -17.04L-36.56 -15.32C-38.17 -15.18 -39.51 -14.99 -40.56 -14.75C-41.62 -14.51 -42.59 -14.05 -43.47 -13.38C-44.36 -12.7 -44.97 -11.69 -45.3 -10.37C-45.47 -9.68 -45.49 -8.98 -45.34 -8.26C-45.2 -7.54 -44.88 -6.9 -44.38 -6.35ZM-38.27 -8.54C-38.83 -8.07 -39.35 -7.9 -39.85 -8.02C-40.26 -8.13 -40.54 -8.38 -40.7 -8.77C-40.85 -9.17 -40.85 -9.65 -40.71 -10.22C-40.51 -11.03 -40.11 -11.66 -39.51 -12.11C-38.92 -12.56 -38.11 -12.93 -37.09 -13.22Z M-22.68 -26.38L-25.42 -1.81L-17.87 -0.97C-12.91 -0.42 -10.16 -2.57 -9.62 -7.42C-9.43 -9.16 -9.65 -10.58 -10.28 -11.67C-10.92 -12.77 -11.94 -13.48 -13.33 -13.82C-12.15 -13.92 -11.21 -14.33 -10.49 -15.07C-9.77 -15.81 -9.33 -16.91 -9.17 -18.36C-8.98 -20.08 -9.17 -21.46 -9.75 -22.48C-10.34 -23.51 -11.17 -24.25 -12.25 -24.71C-13.34 -25.17 -14.68 -25.49 -16.28 -25.67ZM-17.28 -15.83L-18.35 -15.95L-17.66 -22.14L-16.71 -22.03C-15.7 -21.92 -14.96 -21.59 -14.49 -21.03C-14.02 -20.48 -13.84 -19.72 -13.95 -18.74C-14.07 -17.63 -14.37 -16.84 -14.85 -16.36C-15.32 -15.88 -16.13 -15.7 -17.28 -15.83ZM-18.42 -4.87L-19.57 -5L-18.75 -12.37L-17.62 -12.24C-16.45 -12.11 -15.66 -11.74 -15.25 -11.12C-14.83 -10.5 -14.71 -9.49 -14.86 -8.1C-15 -6.86 -15.34 -5.98 -15.88 -5.46C-16.42 -4.94 -17.26 -4.74 -18.42 -4.87Z M-1.65 -24.71L-1.51 0.01L3.43 -0.02L3.3 -24.74Z M14.12 -0.87C14.78 -0.52 15.54 -0.4 16.39 -0.49C17.25 -0.59 17.94 -0.94 18.45 -1.53C18.96 -2.11 19.29 -2.83 19.44 -3.66C19.55 -3.37 19.78 -2.55 20.11 -1.22L24.54 -1.72C24.21 -2.83 23.95 -4.27 23.75 -6.05L22.83 -14.24C22.65 -15.84 22.05 -17.07 21.03 -17.93C20.02 -18.78 18.65 -19.12 16.93 -18.92C14.89 -18.7 13.41 -18.02 12.49 -16.91C11.57 -15.79 11.19 -14.17 11.34 -12.06L15.97 -12.4L15.95 -13.68C15.92 -14.13 15.97 -14.49 16.11 -14.75C16.24 -15.01 16.5 -15.16 16.89 -15.2C17.27 -15.25 17.55 -15.14 17.73 -14.9C17.91 -14.65 18.03 -14.28 18.09 -13.77L18.29 -12.01C16.83 -11.32 15.65 -10.67 14.74 -10.08C13.84 -9.49 13.09 -8.72 12.5 -7.77C11.91 -6.82 11.69 -5.67 11.84 -4.32C11.92 -3.61 12.15 -2.94 12.54 -2.32C12.93 -1.7 13.45 -1.22 14.12 -0.87ZM19.07 -5.07C18.71 -4.43 18.28 -4.09 17.77 -4.03C17.35 -3.98 16.99 -4.12 16.71 -4.43C16.43 -4.75 16.26 -5.2 16.19 -5.79C16.1 -6.62 16.25 -7.34 16.65 -7.97C17.05 -8.6 17.68 -9.23 18.53 -9.86Z M34.35 -5.31C35.78 -4.21 37.81 -3.99 40.41 -4.64C42.92 -5.27 44.54 -6.34 45.27 -7.85C46.01 -9.37 46.09 -11.25 45.53 -13.5L45.01 -15.57L39.83 -14.28L40.46 -11.76C40.7 -10.82 40.77 -10.06 40.69 -9.51C40.61 -8.95 40.2 -8.59 39.47 -8.4C38.74 -8.22 38.19 -8.35 37.82 -8.79C37.45 -9.23 37.14 -9.93 36.91 -10.88L34.09 -22.16C33.86 -23.09 33.79 -23.84 33.9 -24.43C34.01 -25.01 34.43 -25.39 35.19 -25.58C35.94 -25.77 36.47 -25.64 36.79 -25.19C37.11 -24.75 37.39 -24.06 37.62 -23.14L38.22 -20.74L43.4 -22.03L42.88 -24.1C42.33 -26.32 41.38 -27.89 40.04 -28.84C38.69 -29.78 36.76 -29.94 34.25 -29.31C31.63 -28.66 29.94 -27.52 29.19 -25.89C28.44 -24.27 28.4 -22.13 29.06 -19.49L31.22 -10.84C31.87 -8.25 32.91 -6.41 34.35 -5.31Z M56.8 -10.36C57.53 -10.2 58.29 -10.27 59.09 -10.59C59.9 -10.91 60.48 -11.42 60.81 -12.13C61.15 -12.83 61.28 -13.6 61.2 -14.45C61.39 -14.19 61.82 -13.47 62.5 -12.27L66.64 -13.91C66.03 -14.89 65.39 -16.22 64.73 -17.88L61.7 -25.55C61.1 -27.04 60.2 -28.07 59 -28.63C57.79 -29.19 56.38 -29.15 54.77 -28.51C52.86 -27.76 51.61 -26.72 51.02 -25.4C50.42 -24.08 50.48 -22.42 51.18 -20.43L55.56 -21.97L55.21 -23.2C55.06 -23.63 55.02 -23.98 55.08 -24.27C55.14 -24.56 55.35 -24.77 55.71 -24.91C56.07 -25.05 56.37 -25.03 56.61 -24.84C56.85 -24.65 57.06 -24.32 57.25 -23.85L57.9 -22.2C56.68 -21.15 55.71 -20.22 54.99 -19.41C54.27 -18.59 53.75 -17.66 53.43 -16.59C53.11 -15.52 53.2 -14.35 53.7 -13.08C53.96 -12.42 54.36 -11.84 54.9 -11.34C55.44 -10.84 56.07 -10.51 56.8 -10.36ZM60.48 -15.7C60.3 -15 59.97 -14.55 59.5 -14.36C59.1 -14.21 58.72 -14.24 58.37 -14.47C58.02 -14.71 57.73 -15.1 57.51 -15.64C57.2 -16.42 57.16 -17.16 57.38 -17.88C57.6 -18.59 58.04 -19.36 58.7 -20.19Z M76.45 -19.18C77.26 -19.18 78.24 -19.49 79.39 -20.11C80.28 -20.59 81.12 -21.13 81.91 -21.73L80.07 -25.18C79.67 -24.88 79.3 -24.63 78.94 -24.44C78.51 -24.21 78.12 -24.13 77.76 -24.21C77.41 -24.29 77.12 -24.54 76.89 -24.97L72.6 -32.99L74.81 -34.17L73.27 -37.05L71.06 -35.87L68.53 -40.61L64.09 -38.24L66.62 -33.5L65.11 -32.69L66.65 -29.81L68.16 -30.62L72.68 -22.16C73.22 -21.16 73.78 -20.41 74.36 -19.92C74.95 -19.42 75.65 -19.18 76.45 -19.18Z"/></g><g id="SvgjsG25823" class="YEYgfOfKV3" transform="translate(76.51024385438689, 51.56811408515668) scale(1.3208993585966862)" light-content="true" fill="#fcbd1b"><path d="M97.794.079c-10.541-1.407-30.487 16.41-32.863 17.959-3.829-1.723-7.864-2.779-12.072-2.727H48.28c-4.208-.053-8.242 1.003-12.072 2.727C33.67 16.383 12.663-.202 2.123 1.205c-5.873.782 1.949 33.63 5.303 40.543-6.393 9.299-6.584 25.529 6.016 37.954 14.287 14.094 36.402 19.183 36.402 19.183h1.448s22.117-5.089 36.403-19.183c12.603-12.425 12.41-28.653 6.017-37.954C97.068 34.835 103.667.862 97.794.079zM19.176 50.925c15.069-5.872 17.026 8.416 17.026 8.416-15.07 8.806-17.026-8.416-17.026-8.416zm30.957 26.287c6.945-.917 6.236 2.44 6.236 2.44-3.387-1.664-4.341.277-4.341.277.184 2.985-.739 3.91-1.878 3.91-1.161 0-2.279-1.232-1.94-3.91 0 0-.82-1.978-4.302-.5 0 .001-.193-3.471 6.225-2.217zM42 92.407c8.231-1.159 7.598-7.068 7.598-7.068.152 6.813 7.789 7.923 7.789 7.923C47.719 91.724 42 92.407 42 92.407zm20.696-32.449s1.957-14.287 17.026-8.415c.001 0-1.955 17.223-17.026 8.415z"/></g></g></svg>