<svg xmlns="http://www.w3.org/2000/svg" version="1.1" xlink="http://www.w3.org/1999/xlink" xmlns:svgjs="http://svgjs.com/svgjs" width="147" height="147"><defs id="SvgjsDefs11872"/><g id="SvgjsG11873" transform="scale(0.5159704722554411)" opacity="1"><g id="SvgjsG11874" class="nPgHQrHL_" transform="translate(0, 0) scale(1.0642511174369202)" light-content="false" fill="#000000"><circle cx="133.8" cy="133.8" r="133.8"/></g><g id="SvgjsG11875" class="text" transform="translate(142.35674302940822, 236.69150304050004) scale(1)" light-content="true" fill="#fcbd1b"><path d="M-67.27 -42.01L-78.26 -20.34L-71.79 -17.06C-67.58 -14.92 -64.4 -15.98 -62.24 -20.22C-61.46 -21.77 -61.15 -23.16 -61.33 -24.37C-61.51 -25.58 -62.19 -26.6 -63.37 -27.42C-62.26 -27.08 -61.25 -27.15 -60.33 -27.61C-59.41 -28.07 -58.62 -28.95 -57.97 -30.23C-56.89 -32.36 -56.73 -34.12 -57.48 -35.52C-58.22 -36.92 -59.65 -38.15 -61.76 -39.22ZM-66.19 -30.47L-67.32 -31.04L-64.41 -36.76L-63.58 -36.34C-62.53 -35.81 -61.86 -35.21 -61.57 -34.53C-61.29 -33.86 -61.39 -33.04 -61.88 -32.08C-62.41 -31.03 -63 -30.36 -63.63 -30.08C-64.27 -29.8 -65.12 -29.93 -66.19 -30.47ZM-71.04 -20.58L-72.3 -21.22L-68.82 -28.07L-67.65 -27.47C-66.56 -26.92 -65.93 -26.26 -65.75 -25.48C-65.57 -24.71 -65.8 -23.7 -66.43 -22.45C-67.02 -21.29 -67.67 -20.55 -68.37 -20.24C-69.08 -19.93 -69.97 -20.04 -71.04 -20.58Z M-48.83 -33.4L-57.23 -10.6L-53.01 -9.04L-44.61 -31.85Z M-42.85 -6.12C-42.36 -5.58 -41.73 -5.22 -40.96 -5.02C-40.12 -4.81 -39.36 -4.89 -38.68 -5.27C-38 -5.64 -37.44 -6.19 -37.02 -6.91C-37.1 -5.82 -37.18 -4.98 -37.25 -4.4L-33.32 -3.41C-33.15 -4.91 -32.89 -6.32 -32.56 -7.64L-30.59 -15.47C-30.19 -17.06 -30.29 -18.41 -30.89 -19.53C-31.5 -20.66 -32.63 -21.42 -34.27 -21.84C-36.17 -22.32 -37.72 -22.21 -38.91 -21.51C-40.09 -20.81 -40.98 -19.47 -41.56 -17.49L-37.47 -16.27L-37.09 -17.41C-36.92 -17.91 -36.72 -18.27 -36.48 -18.5C-36.23 -18.72 -35.9 -18.78 -35.47 -18.68C-35.05 -18.57 -34.79 -18.34 -34.7 -17.99C-34.62 -17.64 -34.65 -17.16 -34.8 -16.56L-35.2 -14.99C-36.83 -14.82 -38.15 -14.62 -39.17 -14.38C-40.19 -14.14 -41.12 -13.69 -41.97 -13.01C-42.82 -12.34 -43.41 -11.36 -43.74 -10.06C-43.91 -9.38 -43.93 -8.68 -43.78 -7.98C-43.64 -7.27 -43.33 -6.65 -42.85 -6.12ZM-37.7 -7.82C-38.01 -7.69 -38.31 -7.67 -38.6 -7.74C-39.03 -7.85 -39.31 -8.09 -39.46 -8.48C-39.61 -8.87 -39.61 -9.37 -39.46 -9.97C-39.26 -10.78 -38.84 -11.41 -38.21 -11.85C-37.59 -12.29 -36.75 -12.66 -35.71 -12.95L-36.87 -8.33C-37.11 -8.12 -37.39 -7.95 -37.7 -7.82Z M-21.79 -25.89L-24.49 -1.74L-17.28 -0.94C-12.59 -0.41 -9.98 -2.52 -9.45 -7.25C-9.25 -8.98 -9.45 -10.38 -10.05 -11.45C-10.64 -12.52 -11.63 -13.24 -13.02 -13.59C-11.87 -13.66 -10.94 -14.08 -10.24 -14.84C-9.54 -15.59 -9.11 -16.69 -8.95 -18.12C-8.69 -20.48 -9.15 -22.19 -10.34 -23.24C-11.53 -24.29 -13.3 -24.94 -15.65 -25.21ZM-16.74 -15.46L-17.99 -15.6L-17.28 -21.98L-16.35 -21.87C-15.18 -21.74 -14.34 -21.41 -13.84 -20.88C-13.33 -20.35 -13.14 -19.55 -13.26 -18.48C-13.39 -17.31 -13.71 -16.48 -14.2 -15.99C-14.7 -15.5 -15.55 -15.32 -16.74 -15.46ZM-17.81 -4.5L-19.21 -4.66L-18.36 -12.29L-17.05 -12.14C-15.84 -12.01 -15.01 -11.61 -14.57 -10.94C-14.13 -10.28 -13.99 -9.25 -14.15 -7.86C-14.29 -6.57 -14.64 -5.65 -15.19 -5.11C-15.75 -4.57 -16.62 -4.37 -17.81 -4.5Z M-1.5 -24.29L-1.38 0.01L3.12 -0.01L3 -24.31Z M13.67 -0.84C14.31 -0.5 15.02 -0.38 15.82 -0.47C16.67 -0.57 17.35 -0.91 17.86 -1.5C18.37 -2.09 18.7 -2.8 18.85 -3.62C19.15 -2.57 19.37 -1.75 19.51 -1.19L23.54 -1.64C23.17 -3.11 22.91 -4.52 22.76 -5.87L21.87 -13.89C21.68 -15.52 21.11 -16.75 20.15 -17.59C19.2 -18.43 17.87 -18.75 16.18 -18.56C14.23 -18.35 12.83 -17.7 11.96 -16.63C11.09 -15.56 10.74 -13.99 10.89 -11.94L15.14 -12.23L15.09 -13.43C15.08 -13.95 15.14 -14.36 15.29 -14.66C15.44 -14.96 15.73 -15.13 16.17 -15.18C16.6 -15.23 16.93 -15.11 17.13 -14.81C17.33 -14.51 17.47 -14.05 17.54 -13.43L17.72 -11.82C16.25 -11.1 15.08 -10.44 14.21 -9.86C13.34 -9.28 12.62 -8.53 12.06 -7.6C11.5 -6.67 11.3 -5.54 11.45 -4.21C11.52 -3.51 11.75 -2.86 12.13 -2.25C12.51 -1.64 13.02 -1.17 13.67 -0.84ZM17.89 -4.24C17.64 -4.01 17.37 -3.88 17.07 -3.84C16.63 -3.79 16.28 -3.92 16 -4.24C15.73 -4.55 15.55 -5.01 15.48 -5.63C15.39 -6.46 15.56 -7.2 15.99 -7.83C16.43 -8.46 17.08 -9.1 17.95 -9.74L18.48 -5C18.33 -4.72 18.13 -4.46 17.89 -4.24Z M33.18 -5.19C34.57 -4.11 36.51 -3.88 39.01 -4.5C41.44 -5.11 42.99 -6.15 43.67 -7.63C44.36 -9.11 44.42 -10.97 43.85 -13.22L43.37 -15.17L38.71 -14.01L39.28 -11.71C39.56 -10.63 39.64 -9.78 39.55 -9.17C39.45 -8.55 39 -8.15 38.18 -7.94C37.39 -7.75 36.78 -7.88 36.35 -8.35C35.92 -8.82 35.57 -9.61 35.3 -10.72L32.62 -21.43C32.35 -22.51 32.27 -23.37 32.38 -24C32.49 -24.62 32.99 -25.04 33.86 -25.26C34.44 -25.41 34.91 -25.37 35.26 -25.16C35.61 -24.95 35.88 -24.64 36.05 -24.23C36.22 -23.82 36.4 -23.27 36.57 -22.57L37.12 -20.39L41.78 -21.55L41.28 -23.53C40.73 -25.72 39.81 -27.28 38.52 -28.2C37.23 -29.13 35.38 -29.29 32.97 -28.69C30.45 -28.06 28.84 -26.95 28.13 -25.36C27.42 -23.77 27.4 -21.68 28.04 -19.08L30.15 -10.64C30.79 -8.1 31.8 -6.28 33.18 -5.19Z M55.03 -10.05C55.73 -9.9 56.46 -9.98 57.2 -10.27C58 -10.59 58.57 -11.1 58.9 -11.8C59.24 -12.5 59.37 -13.27 59.29 -14.1C59.86 -13.17 60.29 -12.44 60.58 -11.93L64.34 -13.43C63.6 -14.75 62.98 -16.04 62.48 -17.3L59.5 -24.81C58.9 -26.33 58.02 -27.37 56.88 -27.93C55.73 -28.48 54.37 -28.45 52.79 -27.82C50.96 -27.1 49.78 -26.1 49.22 -24.84C48.67 -23.58 48.74 -21.97 49.42 -20.03L53.45 -21.43L53.09 -22.58C52.94 -23.08 52.89 -23.49 52.95 -23.82C53.02 -24.15 53.25 -24.39 53.66 -24.55C54.07 -24.72 54.41 -24.68 54.69 -24.45C54.97 -24.21 55.22 -23.8 55.45 -23.23L56.05 -21.72C54.82 -20.63 53.86 -19.7 53.18 -18.91C52.49 -18.12 52 -17.2 51.7 -16.16C51.41 -15.12 51.5 -13.97 52 -12.73C52.26 -12.07 52.65 -11.5 53.18 -11.01C53.71 -10.53 54.32 -10.2 55.03 -10.05ZM58.21 -14.45C58.03 -14.16 57.8 -13.96 57.52 -13.85C57.11 -13.69 56.74 -13.72 56.39 -13.95C56.04 -14.18 55.75 -14.58 55.52 -15.16C55.21 -15.94 55.18 -16.69 55.43 -17.41C55.68 -18.14 56.15 -18.92 56.82 -19.77L58.58 -15.34C58.51 -15.03 58.38 -14.73 58.21 -14.45Z M73.04 -18.76C74 -18.39 75.24 -18.61 76.78 -19.44C77.48 -19.81 78.26 -20.32 79.12 -20.96L77.45 -24.08C77.21 -23.86 76.85 -23.63 76.37 -23.37C75.47 -22.89 74.78 -23.1 74.3 -24L69.87 -32.28L72.09 -33.47L70.69 -36.08L68.47 -34.9L66.01 -39.5L61.96 -37.33L64.42 -32.73L62.92 -31.92L64.32 -29.31L65.82 -30.11L70.47 -21.44C71.22 -20.02 72.08 -19.13 73.04 -18.76Z"/></g><g id="SvgjsG11876" class="rEdqk6K1y7" transform="translate(77.64434943277251, 53.13119770557165) scale(1.2981812977970957)" light-content="true" fill="#fcbd1b"><path d="M97.794.079c-10.541-1.407-30.487 16.41-32.863 17.959-3.829-1.723-7.864-2.779-12.072-2.727H48.28c-4.208-.053-8.242 1.003-12.072 2.727C33.67 16.383 12.663-.202 2.123 1.205c-5.873.782 1.949 33.63 5.303 40.543-6.393 9.299-6.584 25.529 6.016 37.954 14.287 14.094 36.402 19.183 36.402 19.183h1.448s22.117-5.089 36.403-19.183c12.603-12.425 12.41-28.653 6.017-37.954C97.068 34.835 103.667.862 97.794.079zM19.176 50.925c15.069-5.872 17.026 8.416 17.026 8.416-15.07 8.806-17.026-8.416-17.026-8.416zm30.957 26.287c6.945-.917 6.236 2.44 6.236 2.44-3.387-1.664-4.341.277-4.341.277.184 2.985-.739 3.91-1.878 3.91-1.161 0-2.279-1.232-1.94-3.91 0 0-.82-1.978-4.302-.5 0 .001-.193-3.471 6.225-2.217zM42 92.407c8.231-1.159 7.598-7.068 7.598-7.068.152 6.813 7.789 7.923 7.789 7.923C47.719 91.724 42 92.407 42 92.407zm20.696-32.449s1.957-14.287 17.026-8.415c.001 0-1.955 17.223-17.026 8.415z"/></g></g></svg>