<svg xmlns="http://www.w3.org/2000/svg" version="1.1" xlink="http://www.w3.org/1999/xlink" xmlns:svgjs="http://svgjs.com/svgjs" width="147" height="147"><defs id="SvgjsDefs21448"/><g id="SvgjsG21449" transform="scale(0.5159704722554411)" opacity="1"><g id="SvgjsG21450" class="nPgHQrHL_" transform="translate(0, 0) scale(1.0642511174369202)" light-content="false" fill="#000000"><circle cx="133.8" cy="133.8" r="133.8"/></g><g id="SvgjsG21451" class="text" transform="translate(142.9643308491888, 240.18131920206443) scale(1)" light-content="true" fill="#fcbd1b"><path d="M-88.25 -84.16L-108.98 -74.94L-106.23 -68.75C-104.44 -64.73 -101.51 -63.62 -97.45 -65.42C-95.97 -66.08 -94.93 -66.9 -94.35 -67.89C-93.77 -68.87 -93.66 -70.01 -94.03 -71.29C-93.42 -70.4 -92.65 -69.85 -91.71 -69.64C-90.77 -69.44 -89.69 -69.61 -88.46 -70.15C-86.43 -71.05 -85.28 -72.23 -84.99 -73.68C-84.71 -75.14 -85.02 -76.87 -85.91 -78.88ZM-94.28 -75.17L-94.75 -76.24L-89.28 -78.67L-88.93 -77.88C-88.48 -76.87 -88.35 -76.04 -88.54 -75.39C-88.73 -74.73 -89.28 -74.2 -90.2 -73.79C-91.21 -73.34 -92.03 -73.2 -92.65 -73.38C-93.28 -73.55 -93.82 -74.14 -94.28 -75.17ZM-103.61 -70.87L-104.14 -72.07L-97.59 -74.98L-97.09 -73.85C-96.63 -72.81 -96.56 -71.96 -96.89 -71.29C-97.22 -70.63 -97.98 -70.03 -99.17 -69.5C-100.28 -69 -101.18 -68.85 -101.88 -69.04C-102.58 -69.23 -103.16 -69.84 -103.61 -70.87Z M-82.42 -71.7L-102.11 -60.45L-100.03 -56.8L-80.34 -68.05Z M-97.57 -53.3C-97.56 -52.63 -97.34 -51.98 -96.91 -51.37C-96.46 -50.71 -95.87 -50.3 -95.16 -50.15C-94.45 -49.99 -93.73 -50.04 -92.99 -50.28C-93.72 -49.57 -94.29 -49.02 -94.69 -48.65L-92.53 -45.55C-91.49 -46.5 -90.45 -47.34 -89.4 -48.06L-83.22 -52.36C-81.96 -53.23 -81.2 -54.25 -80.94 -55.41C-80.67 -56.57 -80.99 -57.8 -81.9 -59.1C-82.94 -60.6 -84.1 -61.47 -85.36 -61.71C-86.63 -61.94 -88.07 -61.54 -89.69 -60.51L-87.56 -57.15L-86.59 -57.72C-86.17 -57.96 -85.81 -58.09 -85.5 -58.1C-85.19 -58.11 -84.92 -57.95 -84.68 -57.61C-84.45 -57.27 -84.41 -56.96 -84.56 -56.66C-84.72 -56.35 -85.03 -56.04 -85.51 -55.71L-86.75 -54.85C-88 -55.73 -89.06 -56.4 -89.92 -56.86C-90.78 -57.31 -91.72 -57.57 -92.73 -57.62C-93.74 -57.66 -94.76 -57.33 -95.79 -56.62C-96.32 -56.25 -96.76 -55.77 -97.09 -55.18C-97.42 -54.6 -97.58 -53.97 -97.57 -53.3ZM-92.91 -51.34C-93.2 -51.44 -93.43 -51.61 -93.59 -51.84C-93.83 -52.17 -93.88 -52.52 -93.74 -52.89C-93.61 -53.25 -93.31 -53.6 -92.83 -53.93C-92.19 -54.38 -91.51 -54.57 -90.8 -54.49C-90.09 -54.42 -89.27 -54.16 -88.36 -53.73L-92.02 -51.19C-92.31 -51.19 -92.61 -51.24 -92.91 -51.34Z M-73.98 -58.49L-90.85 -43.33L-86.32 -38.29C-83.37 -35.01 -80.25 -34.86 -76.94 -37.83C-75.74 -38.91 -75.01 -40.02 -74.76 -41.13C-74.5 -42.25 -74.75 -43.36 -75.5 -44.47C-74.65 -43.81 -73.75 -43.52 -72.79 -43.61C-71.83 -43.71 -70.85 -44.21 -69.85 -45.1C-68.2 -46.59 -67.47 -48.07 -67.64 -49.54C-67.82 -51.01 -68.65 -52.56 -70.12 -54.2ZM-76.93 -48.08L-77.72 -48.95L-73.26 -52.96L-72.68 -52.31C-71.95 -51.49 -71.57 -50.74 -71.54 -50.06C-71.52 -49.38 -71.88 -48.7 -72.63 -48.03C-73.45 -47.29 -74.19 -46.91 -74.84 -46.88C-75.48 -46.85 -76.18 -47.25 -76.93 -48.08ZM-84.48 -41.11L-85.36 -42.09L-80.03 -46.88L-79.21 -45.96C-78.45 -45.11 -78.12 -44.32 -78.22 -43.59C-78.33 -42.85 -78.87 -42.05 -79.84 -41.18C-80.74 -40.37 -81.55 -39.94 -82.28 -39.91C-83 -39.87 -83.73 -40.27 -84.48 -41.11Z M-64.59 -48.44L-79.84 -31.66L-76.74 -28.84L-61.48 -45.62Z M-73.32 -26.26C-73.1 -25.63 -72.69 -25.08 -72.1 -24.63C-71.46 -24.14 -70.78 -23.94 -70.05 -24.01C-69.33 -24.08 -68.65 -24.35 -68.02 -24.81C-68.5 -23.9 -68.87 -23.21 -69.14 -22.74L-66.13 -20.45C-65.43 -21.67 -64.7 -22.79 -63.93 -23.8L-59.37 -29.8C-58.44 -31.02 -58.04 -32.22 -58.14 -33.4C-58.25 -34.59 -58.94 -35.66 -60.2 -36.62C-61.66 -37.73 -63.02 -38.2 -64.3 -38.03C-65.57 -37.86 -66.82 -37.04 -68.05 -35.55L-64.98 -33.01L-64.24 -33.85C-63.92 -34.22 -63.61 -34.45 -63.32 -34.56C-63.02 -34.66 -62.71 -34.59 -62.39 -34.34C-62.06 -34.1 -61.92 -33.8 -61.98 -33.47C-62.03 -33.14 -62.24 -32.74 -62.59 -32.28L-63.5 -31.08C-64.96 -31.53 -66.17 -31.84 -67.14 -32.01C-68.1 -32.18 -69.07 -32.13 -70.04 -31.86C-71.02 -31.6 -71.89 -30.97 -72.64 -29.97C-73.04 -29.45 -73.3 -28.86 -73.44 -28.2C-73.58 -27.55 -73.54 -26.9 -73.32 -26.26ZM-68.27 -25.84C-68.59 -25.84 -68.86 -25.93 -69.08 -26.1C-69.41 -26.35 -69.56 -26.67 -69.55 -27.06C-69.53 -27.44 -69.35 -27.87 -69 -28.33C-68.53 -28.95 -67.94 -29.34 -67.24 -29.49C-66.54 -29.64 -65.69 -29.65 -64.69 -29.52L-67.38 -25.97C-67.66 -25.88 -67.96 -25.84 -68.27 -25.84Z M-61.99 -19.69C-61.78 -18.07 -60.63 -16.65 -58.55 -15.43C-56.53 -14.26 -54.81 -13.94 -53.39 -14.49C-51.97 -15.03 -50.72 -16.24 -49.63 -18.11L-48.68 -19.73L-52.56 -21.99L-53.67 -20.08C-54.2 -19.17 -54.69 -18.55 -55.15 -18.2C-55.61 -17.86 -56.18 -17.88 -56.86 -18.27C-57.52 -18.66 -57.84 -19.15 -57.82 -19.74C-57.8 -20.33 -57.52 -21.09 -56.98 -22.01L-51.8 -30.91C-51.27 -31.81 -50.77 -32.44 -50.28 -32.78C-49.8 -33.13 -49.2 -33.09 -48.47 -32.67C-47.99 -32.39 -47.7 -32.06 -47.6 -31.69C-47.5 -31.32 -47.53 -30.94 -47.68 -30.55C-47.83 -30.17 -48.07 -29.68 -48.41 -29.1L-49.47 -27.29L-45.6 -25.03L-44.64 -26.68C-43.58 -28.5 -43.18 -30.14 -43.44 -31.6C-43.7 -33.06 -44.83 -34.37 -46.83 -35.54C-48.93 -36.76 -50.73 -37.07 -52.24 -36.47C-53.74 -35.86 -55.13 -34.48 -56.39 -32.32L-60.47 -25.31C-61.71 -23.19 -62.21 -21.32 -61.99 -19.69Z M-49.25 -11.17C-48.88 -10.61 -48.36 -10.18 -47.67 -9.88C-46.93 -9.57 -46.22 -9.53 -45.54 -9.78C-44.85 -10.02 -44.26 -10.44 -43.76 -11.04C-44 -10.05 -44.2 -9.29 -44.34 -8.76L-40.87 -7.27C-40.49 -8.63 -40.05 -9.89 -39.55 -11.06L-36.58 -17.98C-35.97 -19.39 -35.87 -20.65 -36.26 -21.77C-36.65 -22.9 -37.57 -23.77 -39.03 -24.4C-40.71 -25.12 -42.15 -25.24 -43.35 -24.77C-44.55 -24.3 -45.56 -23.2 -46.39 -21.46L-42.8 -19.74L-42.28 -20.73C-42.06 -21.17 -41.81 -21.47 -41.56 -21.64C-41.3 -21.82 -40.98 -21.82 -40.6 -21.66C-40.23 -21.5 -40.02 -21.25 -40 -20.91C-39.97 -20.57 -40.07 -20.14 -40.3 -19.61L-40.89 -18.22C-42.42 -18.31 -43.67 -18.31 -44.64 -18.24C-45.62 -18.18 -46.55 -17.89 -47.43 -17.4C-48.31 -16.9 -49 -16.08 -49.49 -14.93C-49.75 -14.33 -49.87 -13.7 -49.84 -13.02C-49.81 -12.35 -49.62 -11.74 -49.25 -11.17ZM-44.25 -11.98C-44.56 -11.91 -44.84 -11.93 -45.1 -12.04C-45.48 -12.2 -45.7 -12.47 -45.79 -12.85C-45.87 -13.23 -45.79 -13.69 -45.56 -14.22C-45.25 -14.94 -44.78 -15.46 -44.14 -15.77C-43.49 -16.08 -42.67 -16.3 -41.67 -16.42L-43.42 -12.33C-43.67 -12.17 -43.95 -12.06 -44.25 -11.98Z M-36.87 -6.92C-36.5 -6.04 -35.54 -5.35 -33.99 -4.86C-33.28 -4.63 -32.43 -4.44 -31.44 -4.28L-30.44 -7.43C-30.74 -7.45 -31.14 -7.53 -31.62 -7.69C-32.53 -7.98 -32.83 -8.57 -32.55 -9.48L-29.89 -17.83L-27.64 -17.12L-26.8 -19.76L-29.04 -20.47L-27.56 -25.11L-31.65 -26.41L-33.13 -21.77L-34.65 -22.26L-35.49 -19.62L-33.97 -19.13L-36.75 -10.38C-37.21 -8.96 -37.25 -7.8 -36.87 -6.92Z M-15.81 -23.99L-23.38 -2.16L-19.08 -1.55L-17.52 -6.36L-13.97 -5.85L-13.85 -0.79L-9.63 -0.19L-10.74 -23.26ZM-14.01 -8.74L-16.7 -9.12L-14.07 -17.97Z M-6.51 -1.32C-5.62 -0.31 -4.29 0.21 -2.51 0.25C-0.8 0.29 0.52 -0.1 1.44 -0.93C2.35 -1.76 2.83 -2.99 2.86 -4.61L2.9 -6.4L-1.15 -6.49L-1.2 -4.53C-1.21 -3.88 -1.31 -3.41 -1.5 -3.11C-1.68 -2.82 -1.99 -2.68 -2.42 -2.69C-2.83 -2.69 -3.13 -2.86 -3.32 -3.18C-3.51 -3.5 -3.59 -4.08 -3.57 -4.92L-3.43 -11.31C-3.41 -12.15 -3.3 -12.73 -3.12 -13.06C-2.93 -13.4 -2.62 -13.56 -2.17 -13.55C-1.76 -13.54 -1.46 -13.4 -1.28 -13.12C-1.1 -12.85 -1.02 -12.35 -1.04 -11.64L-1.07 -9.99L2.98 -9.9L3.02 -11.44C3.06 -13.08 2.64 -14.32 1.77 -15.17C0.91 -16.01 -0.4 -16.45 -2.13 -16.49C-3.9 -16.53 -5.26 -16.07 -6.2 -15.12C-7.13 -14.17 -7.62 -12.79 -7.66 -10.98L-7.79 -5.52C-7.83 -3.73 -7.4 -2.33 -6.51 -1.32Z M6.6 -1.07C7.27 -0.39 8.42 -0.11 10.04 -0.23C10.79 -0.28 11.65 -0.42 12.62 -0.64L12.38 -3.94C12.09 -3.84 11.69 -3.77 11.19 -3.74C10.24 -3.67 9.73 -4.11 9.66 -5.06L9.01 -13.8L11.36 -13.97L11.16 -16.73L8.81 -16.56L8.45 -21.42L4.18 -21.11L4.54 -16.25L2.95 -16.13L3.15 -13.37L4.74 -13.48L5.42 -4.32C5.53 -2.83 5.92 -1.75 6.6 -1.07Z M11.62 -22.7L12.08 -19.57L16.29 -20.19L15.83 -23.32ZM12.49 -16.94L14.84 -0.93L19.03 -1.55L16.68 -17.56Z M17.18 -17.51L23.98 -2.47L28.35 -3.48L27.93 -19.99L23.97 -19.08L25.06 -8.15L21.16 -18.43Z M26.55 -25.79L27.51 -22.78L31.56 -24.06L30.6 -27.08ZM28.34 -20.25L33.24 -4.82L37.26 -6.1L32.37 -21.53Z M41.08 -8.43C41.93 -7.99 43.11 -8.06 44.62 -8.67C45.31 -8.94 46.09 -9.33 46.96 -9.84L45.73 -12.91C45.48 -12.73 45.12 -12.55 44.65 -12.36C43.77 -12.01 43.15 -12.27 42.8 -13.16L39.55 -21.29L41.73 -22.17L40.71 -24.74L38.52 -23.87L36.72 -28.39L32.74 -26.81L34.54 -22.28L33.06 -21.69L34.09 -19.11L35.57 -19.71L38.98 -11.18C39.53 -9.79 40.23 -8.87 41.08 -8.43Z M49.95 -9.4L51.3 -6.76L52.1 -7.17C53.46 -7.87 54.41 -8.7 54.95 -9.65C55.49 -10.61 55.56 -11.83 55.18 -13.31L50.91 -29.88L47.32 -28.04L50.36 -18.42L44.01 -26.34L40.42 -24.5L49.94 -14.02C50.33 -13.59 50.7 -13.17 51.04 -12.76C51.39 -12.35 51.62 -12.04 51.73 -11.83C51.96 -11.38 51.93 -10.97 51.65 -10.6C51.36 -10.24 50.8 -9.84 49.95 -9.4Z M52.11 -38.21L65.98 -20.27L69.64 -23.1L63.49 -31.05L66.66 -33.5L72.81 -25.55L76.46 -28.37L62.59 -46.32L58.93 -43.49L64.62 -36.14L61.45 -33.69L55.76 -41.04Z M78.73 -32.16C80.07 -32.13 81.37 -32.74 82.62 -33.99C83.81 -35.18 84.41 -36.4 84.44 -37.64C84.47 -38.88 83.91 -40.07 82.76 -41.22L81.77 -42.21L79 -39.44L80.1 -38.33C80.96 -37.47 81.09 -36.75 80.5 -36.15C80.21 -35.86 79.88 -35.75 79.5 -35.83C79.12 -35.9 78.69 -36.18 78.2 -36.67L75.99 -38.88L80.56 -43.46L78.56 -45.46C77.21 -46.8 75.9 -47.52 74.62 -47.62C73.34 -47.71 72.06 -47.11 70.78 -45.83C69.54 -44.59 68.93 -43.3 68.96 -41.95C68.98 -40.61 69.64 -39.29 70.94 -37.99L74.78 -34.15C76.07 -32.86 77.39 -32.2 78.73 -32.16ZM76.34 -42.09L74.56 -40.31L73.67 -41.2C73.06 -41.81 72.71 -42.3 72.61 -42.68C72.51 -43.05 72.61 -43.39 72.92 -43.7C73.23 -44.01 73.57 -44.13 73.94 -44.06C74.3 -43.99 74.73 -43.7 75.23 -43.2Z M70.49 -54.58L87.86 -40L90.56 -43.21L73.19 -57.8Z M79.21 -54.74L96.87 -42.47L99.26 -45.92L93.88 -49.66C95.36 -50.02 96.4 -50.63 97.01 -51.51C97.69 -52.49 97.81 -53.51 97.35 -54.58C96.9 -55.64 96.02 -56.63 94.7 -57.55L89.5 -61.16C88.34 -61.97 87.2 -62.42 86.08 -62.52C84.96 -62.61 84.05 -62.17 83.34 -61.18C82.65 -60.18 82.4 -58.96 82.6 -57.51L81.61 -58.19ZM92.42 -53.98C93.71 -53.09 94.11 -52.29 93.62 -51.58C93.36 -51.21 92.96 -50.91 92.41 -50.68L84.07 -56.48C84.03 -57.15 84.14 -57.66 84.39 -58.03C84.87 -58.72 85.69 -58.66 86.86 -57.85Z M99.67 -58.41C100.96 -58.77 102.02 -59.72 102.86 -61.29C103.66 -62.77 103.89 -64.1 103.56 -65.3C103.23 -66.49 102.35 -67.48 100.92 -68.25L99.68 -68.91L97.83 -65.46L99.21 -64.71C100.28 -64.14 100.61 -63.48 100.21 -62.74C100.02 -62.38 99.73 -62.18 99.35 -62.14C98.97 -62.1 98.47 -62.25 97.87 -62.57L95.1 -64.06L98.17 -69.76L95.68 -71.09C94 -72 92.53 -72.31 91.28 -72.03C90.03 -71.75 88.97 -70.81 88.12 -69.21C87.29 -67.67 87.08 -66.25 87.49 -64.97C87.9 -63.69 88.91 -62.62 90.53 -61.75L95.31 -59.18C96.92 -58.31 98.37 -58.06 99.67 -58.41ZM94.52 -67.23L93.33 -65.01L92.22 -65.61C91.46 -66.02 90.98 -66.38 90.78 -66.72C90.58 -67.05 90.58 -67.4 90.78 -67.78C90.99 -68.18 91.28 -68.39 91.65 -68.43C92.02 -68.46 92.52 -68.31 93.14 -67.97Z M91.18 -74.6L106.13 -68.4L107.75 -72.3L97.79 -76.44C97.11 -77.51 96.96 -78.52 97.36 -79.47C97.56 -79.95 97.85 -80.37 98.25 -80.74L94.26 -82.39C94.13 -82.16 94.03 -81.97 93.96 -81.82C93.69 -81.16 93.66 -80.5 93.87 -79.84C94.08 -79.18 94.53 -78.4 95.21 -77.51L92.8 -78.51Z"/></g><g id="SvgjsG21452" class="rEdqk6K1y7" transform="translate(77.64434943277251, 56.13119770557165) scale(1.2981812977970957)" light-content="true" fill="#fcbd1b"><path d="M97.794.079c-10.541-1.407-30.487 16.41-32.863 17.959-3.829-1.723-7.864-2.779-12.072-2.727H48.28c-4.208-.053-8.242 1.003-12.072 2.727C33.67 16.383 12.663-.202 2.123 1.205c-5.873.782 1.949 33.63 5.303 40.543-6.393 9.299-6.584 25.529 6.016 37.954 14.287 14.094 36.402 19.183 36.402 19.183h1.448s22.117-5.089 36.403-19.183c12.603-12.425 12.41-28.653 6.017-37.954C97.068 34.835 103.667.862 97.794.079zM19.176 50.925c15.069-5.872 17.026 8.416 17.026 8.416-15.07 8.806-17.026-8.416-17.026-8.416zm30.957 26.287c6.945-.917 6.236 2.44 6.236 2.44-3.387-1.664-4.341.277-4.341.277.184 2.985-.739 3.91-1.878 3.91-1.161 0-2.279-1.232-1.94-3.91 0 0-.82-1.978-4.302-.5 0 .001-.193-3.471 6.225-2.217zM42 92.407c8.231-1.159 7.598-7.068 7.598-7.068.152 6.813 7.789 7.923 7.789 7.923C47.719 91.724 42 92.407 42 92.407zm20.696-32.449s1.957-14.287 17.026-8.415c.001 0-1.955 17.223-17.026 8.415z"/></g></g></svg>