<svg xmlns="http://www.w3.org/2000/svg" version="1.1" xlink="http://www.w3.org/1999/xlink" xmlns:svgjs="http://svgjs.com/svgjs" width="129.71279521880277" height="147"><defs id="SvgjsDefs29971"/><g id="SvgjsG29972" transform="scale(0.515970515970516)" opacity="1"><g id="SvgjsG29973" class="FCzmz6mUH" transform="translate(-2.02911745413241, -2.6943100237780215) scale(2.9028862004755593)" light-content="false" fill="#000000"><path d="M47 1.732l37.301 21.536a6 6 0 0 1 3 5.196v43.072a6 6 0 0 1-3 5.196L47 98.268a6 6 0 0 1-6 0L3.699 76.732a6 6 0 0 1-3-5.196V28.464a6 6 0 0 1 3-5.196L41 1.732a6 6 0 0 1 6 0z"/></g><g id="SvgjsG29974" class="text" transform="translate(127.10193395387985, 229.58549429611764) scale(1)" light-content="true" fill="#fcbd1b"><path d="M-63.49 -46.06L-81.7 -29.29L-77.95 -26.53L-74.04 -30.28L-70.95 -28L-73.39 -23.17L-69.72 -20.46L-59.07 -42.8ZM-69.52 -30.75L-71.86 -32.47L-64.9 -39.49Z M-66.2 -19.94C-65.87 -18.53 -64.88 -17.36 -63.23 -16.42C-61.64 -15.51 -60.19 -15.21 -58.91 -15.52C-57.62 -15.84 -56.55 -16.75 -55.69 -18.26L-54.74 -19.93L-58.52 -22.09L-59.56 -20.26C-59.9 -19.65 -60.24 -19.26 -60.56 -19.07C-60.89 -18.89 -61.25 -18.91 -61.65 -19.14C-62.03 -19.36 -62.23 -19.67 -62.24 -20.07C-62.26 -20.46 -62.04 -21.06 -61.59 -21.84L-58.21 -27.78C-57.76 -28.56 -57.37 -29.06 -57.02 -29.28C-56.68 -29.5 -56.3 -29.49 -55.88 -29.25C-55.5 -29.03 -55.29 -28.75 -55.26 -28.4C-55.23 -28.05 -55.41 -27.54 -55.78 -26.88L-56.66 -25.34L-52.88 -23.19L-52.06 -24.62C-51.19 -26.15 -50.95 -27.53 -51.34 -28.77C-51.73 -30 -52.73 -31.08 -54.35 -32C-56 -32.94 -57.51 -33.21 -58.88 -32.79C-60.24 -32.37 -61.41 -31.32 -62.37 -29.63L-65.26 -24.55C-66.21 -22.88 -66.53 -21.34 -66.2 -19.94Z M-53.98 -13.02C-53.69 -12.03 -52.75 -11.18 -51.16 -10.46C-50.43 -10.13 -49.55 -9.82 -48.52 -9.53L-47.07 -12.76C-47.39 -12.82 -47.8 -12.96 -48.29 -13.18C-49.22 -13.6 -49.48 -14.28 -49.06 -15.21L-45.19 -23.76L-42.89 -22.73L-41.67 -25.43L-43.97 -26.47L-41.82 -31.23L-46 -33.12L-48.15 -28.36L-49.71 -29.06L-50.93 -26.36L-49.38 -25.65L-53.42 -16.68C-54.08 -15.23 -54.27 -14 -53.98 -13.02Z M-38.15 -30.8L-39.32 -27.62L-35.05 -26.04L-33.87 -29.22ZM-40.28 -24.93L-46.28 -8.67L-42.03 -7.1L-36.03 -23.37Z M-35.55 -23.06L-36.9 -5.43L-32.28 -4.12L-24.17 -19.86L-28.36 -21.04L-32.96 -10.21L-31.33 -21.87Z M-22.44 -26L-23.1 -22.68L-18.63 -21.79L-17.97 -25.12ZM-23.63 -19.88L-26.99 -2.87L-22.55 -1.99L-19.18 -19Z M-17.76 -2.2C-17.2 -1.34 -16.05 -0.8 -14.32 -0.58C-13.53 -0.49 -12.6 -0.45 -11.52 -0.48L-11.08 -3.99C-11.41 -3.95 -11.84 -3.96 -12.38 -4.03C-13.39 -4.16 -13.83 -4.73 -13.71 -5.74L-12.54 -15.06L-10.04 -14.74L-9.67 -17.69L-12.17 -18L-11.52 -23.18L-16.07 -23.75L-16.72 -18.57L-18.42 -18.79L-18.79 -15.84L-17.09 -15.63L-18.32 -5.86C-18.52 -4.27 -18.33 -3.05 -17.76 -2.2Z M-8.95 1.48L-9.05 4.66L-8.09 4.69C-6.45 4.75 -5.13 4.47 -4.13 3.85C-3.13 3.23 -2.43 2.13 -2.01 0.54L2.59 -17.19L-1.72 -17.34L-3.87 -6.75L-5.71 -17.47L-10.03 -17.61L-6.55 -2.85C-6.41 -2.24 -6.29 -1.66 -6.18 -1.09C-6.07 -0.53 -6.01 -0.12 -6.02 0.14C-6.04 0.68 -6.28 1.05 -6.73 1.24C-7.19 1.44 -7.93 1.52 -8.95 1.48Z M8.16 -24.38L11.72 -0.34L16.62 -1.07L15.04 -11.72L19.28 -12.35L20.86 -1.7L25.76 -2.43L22.19 -26.46L17.3 -25.73L18.76 -15.88L14.51 -15.25L13.05 -25.11Z M29.87 -4.77C31.1 -4.03 32.64 -3.92 34.47 -4.43C36.2 -4.91 37.41 -5.73 38.08 -6.87C38.76 -8.01 38.87 -9.42 38.4 -11.1L38 -12.54L33.95 -11.42L34.4 -9.8C34.75 -8.55 34.49 -7.8 33.62 -7.56C33.2 -7.44 32.83 -7.51 32.52 -7.78C32.21 -8.05 31.95 -8.54 31.75 -9.25L30.85 -12.48L37.53 -14.34L36.71 -17.26C36.17 -19.23 35.32 -20.59 34.17 -21.35C33.03 -22.11 31.52 -22.23 29.65 -21.71C27.84 -21.21 26.59 -20.32 25.91 -19.05C25.22 -17.78 25.14 -16.2 25.67 -14.31L27.23 -8.71C27.76 -6.82 28.64 -5.5 29.87 -4.77ZM32.87 -15.29L30.27 -14.57L29.91 -15.87C29.66 -16.75 29.59 -17.4 29.7 -17.8C29.8 -18.2 30.08 -18.47 30.52 -18.59C30.98 -18.72 31.36 -18.65 31.66 -18.4C31.97 -18.14 32.22 -17.64 32.42 -16.91Z M34.03 -30.04L42.51 -7.27L46.73 -8.84L38.25 -31.61Z M42.28 -25.6L52.21 -4.81L56.27 -6.75L53.24 -13.08C54.81 -12.63 56.11 -12.65 57.14 -13.14C58.29 -13.7 58.94 -14.59 59.08 -15.82C59.23 -17.05 58.93 -18.44 58.19 -20L55.26 -26.11C54.61 -27.49 53.79 -28.51 52.8 -29.19C51.81 -29.87 50.72 -29.94 49.54 -29.4C48.37 -28.84 47.49 -27.83 46.9 -26.37L46.34 -27.54ZM54.18 -17.88C54.9 -16.36 54.85 -15.41 54.02 -15.01C53.58 -14.81 53.05 -14.74 52.42 -14.81L47.72 -24.64C48.04 -25.28 48.41 -25.7 48.85 -25.91C49.66 -26.3 50.39 -25.8 51.05 -24.43Z M63.27 -18.16C64.66 -17.8 66.17 -18.12 67.78 -19.13C69.31 -20.08 70.23 -21.2 70.56 -22.49C70.89 -23.78 70.59 -25.16 69.67 -26.64L68.88 -27.91L65.32 -25.69L66.21 -24.26C66.89 -23.16 66.85 -22.37 66.09 -21.89C65.72 -21.66 65.34 -21.63 64.97 -21.79C64.59 -21.96 64.21 -22.36 63.82 -22.99L62.04 -25.84L67.92 -29.5L66.32 -32.08C65.24 -33.81 64.05 -34.88 62.73 -35.28C61.42 -35.69 59.94 -35.38 58.29 -34.35C56.7 -33.36 55.75 -32.16 55.45 -30.74C55.15 -29.33 55.52 -27.8 56.56 -26.13L59.63 -21.19C60.67 -19.53 61.88 -18.52 63.27 -18.16ZM63.19 -29.1L60.9 -27.67L60.19 -28.82C59.7 -29.6 59.45 -30.2 59.44 -30.61C59.43 -31.03 59.61 -31.36 60 -31.6C60.41 -31.86 60.8 -31.9 61.16 -31.74C61.52 -31.57 61.9 -31.17 62.3 -30.53Z M64.05 -37.75L74.61 -24L78.2 -26.76L71.17 -35.92C71.1 -37.28 71.51 -38.3 72.38 -38.97C72.82 -39.31 73.33 -39.54 73.88 -39.67L71.07 -43.33C70.82 -43.19 70.63 -43.07 70.49 -42.96C69.88 -42.5 69.5 -41.9 69.34 -41.17C69.18 -40.45 69.18 -39.49 69.34 -38.3L67.64 -40.51Z"/></g><g id="SvgjsG29975" class="J1vvEV4yOf" transform="translate(60.892218221226535, 56.13119244156939) scale(1.2981811878100113)" light-content="true" fill="#fcbd1b"><path d="M97.794.079c-10.541-1.407-30.487 16.41-32.863 17.959-3.829-1.723-7.864-2.779-12.072-2.727H48.28c-4.208-.053-8.242 1.003-12.072 2.727C33.67 16.383 12.663-.202 2.123 1.205c-5.873.782 1.949 33.63 5.303 40.543-6.393 9.299-6.584 25.529 6.016 37.954 14.287 14.094 36.402 19.183 36.402 19.183h1.448s22.117-5.089 36.403-19.183c12.603-12.425 12.41-28.653 6.017-37.954C97.068 34.835 103.667.862 97.794.079zM19.176 50.925c15.069-5.872 17.026 8.416 17.026 8.416-15.07 8.806-17.026-8.416-17.026-8.416zm30.957 26.287c6.945-.917 6.236 2.44 6.236 2.44-3.387-1.664-4.341.277-4.341.277.184 2.985-.739 3.91-1.878 3.91-1.161 0-2.279-1.232-1.94-3.91 0 0-.82-1.978-4.302-.5 0 .001-.193-3.471 6.225-2.217zM42 92.407c8.231-1.159 7.598-7.068 7.598-7.068.152 6.813 7.789 7.923 7.789 7.923C47.719 91.724 42 92.407 42 92.407zm20.696-32.449s1.957-14.287 17.026-8.415c.001 0-1.955 17.223-17.026 8.415z"/></g></g></svg>